<svg xmlns="http://www.w3.org/2000/svg" xmlns:xlink="http://www.w3.org/1999/xlink">
    <defs>
        <symbol id="background" viewBox="0 0 400 130">
            <image overflow="visible" opacity="0.7" width="511" height="511" xlink:href="F5A45420.png" transform="matrix(0.24 0 0 0.24 1.1865 4.9248)">
            </image>
            <image overflow="visible" opacity="0.7" width="511" height="511" xlink:href="F5A45421.png" transform="matrix(0.24 0 0 0.24 91.1699 6.2432)">
            </image>
            <image overflow="visible" opacity="0.7" width="511" height="511" xlink:href="F5A45427.png" transform="matrix(0.24 0 0 0.24 185.9912 6.2432)">
            </image>
            <image overflow="visible" opacity="0.7" width="511" height="511" xlink:href="F5A45422.png" transform="matrix(0.24 0 0 0.24 276.4189 6.2432)">
            </image>
            <path fill="#FFFFFF" d="M337.7,93.6c-20,0-36.2-16.2-36.2-36.2c0-20,16.2-36.2,36.2-36.2c20,0,36.2,16.2,36.2,36.2
	C373.9,77.4,357.7,93.6,337.7,93.6z" />
            <path fill="#E33B5A" d="M337.7,93.6c-20,0-36.2-16.2-36.2-36.2h-20.2c0,31.1,25.2,56.4,56.4,56.4c31.1,0,56.4-25.2,56.4-56.4h-20.2
	C373.9,77.4,357.7,93.6,337.7,93.6z" />
            <circle fill="#FFFFFF" cx="245.1" cy="57.4" r="36.2" />
            <path fill="#FDC92C" d="M245.1,21.2c-20,0-36.2,16.2-36.2,36.2h-20.2c0-31.1,25.2-56.4,56.4-56.4c31.1,0,56.4,25.2,56.4,56.4h-20.2
	C281.3,37.4,265.1,21.2,245.1,21.2z" />
            <path fill="#FFFFFF" d="M152.5,93.6c-20,0-36.2-16.2-36.2-36.2c0-20,16.2-36.2,36.2-36.2c20,0,36.2,16.2,36.2,36.2
	C188.7,77.4,172.5,93.6,152.5,93.6z" />
            <path fill="#126A9C" d="M152.5,93.6c-20,0-36.2-16.2-36.2-36.2H96.1c0,31.1,25.2,56.4,56.4,56.4s56.4-25.2,56.4-56.4h-20.2
	C188.7,77.4,172.5,93.6,152.5,93.6z" />
            <circle fill="#FFFFFF" cx="59.8" cy="57.4" r="36.2" />
            <path fill="#409E9C" d="M59.8,21.2c-20,0-36.2,16.2-36.2,36.2H3.4C3.4,26.3,28.7,1,59.8,1c31.1,0,56.4,25.2,56.4,56.4H96.1
	C96.1,37.4,79.8,21.2,59.8,21.2z" />
            <path fill="#CC3353" d="M384,71.9l-14.5-14.5h4.5c0-20-16.2-36.2-36.2-36.2c-20,0-36.2,16.2-36.2,36.2h-20.2
	c0-31.1,25.2-56.4,56.4-56.4c31.1,0,56.4,25.2,56.4,56.4h4.4L384,71.9z" />
            <path fill="#F1B31C" d="M291.4,42.9l-14.5,14.5h4.5c0,20-16.2,36.2-36.2,36.2c-20,0-36.2-16.2-36.2-36.2h-20.2
	c0,31.1,25.2,56.4,56.4,56.4c31.1,0,56.4-25.2,56.4-56.4h4.4L291.4,42.9z" />
            <path fill="#1378BA" d="M198.7,71.9l-14.5-14.5h4.5c0-20-16.2-36.2-36.2-36.2c-20,0-36.2,16.2-36.2,36.2H96.1
	C96.1,26.3,121.3,1,152.5,1s56.4,25.2,56.4,56.4h4.4L198.7,71.9z" />
            <path fill="#45AEAE" d="M106.1,42.9L91.6,57.4h4.5c0,20-16.2,36.2-36.2,36.2c-20,0-36.2-16.2-36.2-36.2H3.4
	c0,31.1,25.2,56.4,56.4,56.4c31.1,0,56.4-25.2,56.4-56.4h4.4L106.1,42.9z" />
            <g>
                <g>
                    <rect x="329" y="54.2" fill="#E33B5A" width="4.3" height="9.3" />
                    <rect x="335.5" y="52.1" fill="#E33B5A" width="4.3" height="11.4" />
                    <rect x="342.1" y="50.1" fill="#E33B5A" width="4.3" height="13.4" />
                </g>
            </g>
            <g>
                <g>
                    <circle fill="#45AEAE" cx="59.8" cy="50" r="5.1" />
                    <path fill="#45AEAE" d="M68.6,53.5h-2.4c-1.2,2.2-3.6,3.7-6.4,3.7c-2.7,0-5.1-1.5-6.4-3.7h-2.4c-3.8,0-3.3,7.9-3.3,11.7h24.1
			C71.9,61.4,72.4,53.5,68.6,53.5z" />
                </g>
            </g>
            <path fill="#FDC92C" d="M242.8,52.3c0-0.9,1.3-1.1,2.5-1.1c1.1,0,2.6,0.5,3.9,1.2l0.2-2.5c-0.6-0.4-2.1-0.8-3.6-0.9l0.4-2.6h-2.4
	l0.4,2.6c-3.1,0.3-4.1,2.1-4.1,3.6c0,3.8,7.1,3,7.1,5.3c0,0.9-0.8,1.2-2.3,1.2c-2,0-3.5-0.7-4.2-1.4l-0.4,2.9
	c0.7,0.4,2.2,0.8,3.9,0.9l-0.4,2.5h2.4l-0.4-2.5c3.6-0.3,4.3-2.2,4.3-3.5C250.1,53.3,242.8,54.5,242.8,52.3z" />
            <path fill="#407C98" d="M147.5,50.2l-1,0.9c-0.4,0.3-0.4,0.9-0.1,1.3l0.5,0.6c-0.4,0.6-0.7,1.2-0.9,1.8l-0.8,0c-0.5,0-0.9,0.4-1,0.9
	l-0.1,1.4c0,0.5,0.4,1,0.9,1l0.8,0c0.1,0.7,0.3,1.3,0.7,1.9l-0.6,0.5c-0.4,0.3-0.4,0.9-0.1,1.3l0.9,1c0.3,0.4,0.9,0.4,1.3,0.1
	l0.6-0.5c0.6,0.4,1.2,0.7,1.8,0.9l0,0.8c0,0.5,0.4,0.9,0.9,1l1.4,0.1c0.5,0,0.9-0.4,1-0.9l0-0.8c0.6-0.1,1.3-0.3,1.9-0.7l0.5,0.6
	c0.3,0.4,0.9,0.4,1.3,0.1l1-0.9c0.4-0.3,0.4-0.9,0.1-1.3l-0.5-0.6c0.4-0.6,0.7-1.2,0.9-1.8l0.8,0c0.5,0,0.9-0.4,1-0.9l0.1-1.4
	c0-0.5-0.4-0.9-0.9-1l-0.8,0c-0.1-0.7-0.3-1.3-0.7-1.9l0.6-0.5c0.4-0.3,0.4-0.9,0.1-1.3l-0.9-1c-0.3-0.4-0.9-0.4-1.3-0.1l-0.6,0.5
	c-0.6-0.4-1.2-0.7-1.8-0.9l0-0.8c0-0.5-0.4-0.9-0.9-1l-1.4-0.1c-0.5,0-0.9,0.4-1,0.9l0,0.8c-0.7,0.1-1.3,0.3-1.9,0.7l-0.5-0.6
	C148.5,49.9,147.9,49.9,147.5,50.2z M149.5,53.5c1.8-1.6,4.6-1.5,6.2,0.3c1.6,1.8,1.5,4.6-0.3,6.2c-1.8,1.6-4.6,1.5-6.2-0.3
	C147.6,57.9,147.7,55.1,149.5,53.5z" />
        </symbol>
        <symbol id="customer-center" viewBox="0 0 75 75">
            <circle fill="#FFFFFF" cx="37.8" cy="37.4" r="36.2" />
            <g>
                <g>
                    <circle fill="#45AEAE" cx="37.8" cy="30" r="5.1" />
                    <path fill="#45AEAE" d="M46.5,33.5h-2.4c-1.2,2.2-3.6,3.7-6.4,3.7c-2.7,0-5.1-1.5-6.4-3.7H29c-3.8,0-3.3,7.9-3.3,11.7h24.1
			C49.8,41.4,50.3,33.5,46.5,33.5z" />
                </g>
            </g>
        </symbol>
        <symbol id="provider-center" viewBox="0 0 75 75">
            <path fill="#FFFFFF" d="M37.5,73.6c-20,0-36.2-16.2-36.2-36.2c0-20,16.2-36.2,36.2-36.2c20,0,36.2,16.2,36.2,36.2
	C73.7,57.4,57.5,73.6,37.5,73.6z" />
            <path fill="#407C98" d="M32.5,30.2l-1,0.9c-0.4,0.3-0.4,0.9-0.1,1.3l0.5,0.6c-0.4,0.6-0.7,1.2-0.9,1.8l-0.8,0c-0.5,0-0.9,0.4-1,0.9
	L29.3,37c0,0.5,0.4,1,0.9,1l0.8,0c0.1,0.7,0.3,1.3,0.7,1.9L31,40.5c-0.4,0.3-0.4,0.9-0.1,1.3l0.9,1c0.3,0.4,0.9,0.4,1.3,0.1l0.6-0.5
	c0.6,0.4,1.2,0.7,1.8,0.9l0,0.8c0,0.5,0.4,0.9,0.9,1l1.4,0.1c0.5,0,0.9-0.4,1-0.9l0-0.8c0.7-0.1,1.3-0.3,1.9-0.7l0.5,0.6
	c0.3,0.4,0.9,0.4,1.3,0.1l1-0.9c0.4-0.3,0.4-0.9,0.1-1.3l-0.5-0.6c0.4-0.6,0.7-1.2,0.9-1.8l0.8,0c0.5,0,0.9-0.4,1-0.9l0.1-1.4
	c0-0.5-0.4-0.9-0.9-1l-0.8,0c-0.1-0.7-0.3-1.3-0.7-1.9l0.6-0.5c0.4-0.3,0.4-0.9,0.1-1.3l-0.9-1c-0.3-0.4-0.9-0.4-1.3-0.1l-0.6,0.5
	c-0.6-0.4-1.2-0.7-1.8-0.9l0-0.8c0-0.5-0.4-0.9-0.9-1l-1.4-0.1c-0.5,0-0.9,0.4-1,0.9l0,0.8c-0.7,0.1-1.3,0.3-1.9,0.7l-0.5-0.6
	C33.5,29.9,32.9,29.9,32.5,30.2z M34.5,33.5c1.8-1.6,4.6-1.5,6.2,0.3c1.6,1.8,1.5,4.6-0.3,6.2c-1.8,1.6-4.6,1.5-6.2-0.3
	C32.6,37.9,32.7,35.1,34.5,33.5z" />
        </symbol>
        <symbol id="sales-center" viewBox="0 0 75 75">
            <circle fill="#FFFFFF" cx="37.8" cy="37.4" r="36.2" />
            <path fill="#FDC92C" d="M34.7,32.3c0-0.9,1.3-1.1,2.5-1.1c1.1,0,2.6,0.5,3.9,1.2l0.2-2.5c-0.6-0.4-2.1-0.8-3.6-0.9l0.4-2.6h-2.4
	l0.4,2.6C33,29.3,32,31.1,32,32.6c0,3.8,7.1,3,7.1,5.3c0,0.9-0.8,1.2-2.3,1.2c-2,0-3.5-0.7-4.2-1.4l-0.4,2.9
	c0.7,0.4,2.2,0.8,3.9,0.9l-0.4,2.5h2.4l-0.4-2.5c3.6-0.3,4.3-2.2,4.3-3.5C42.1,33.3,34.7,34.5,34.7,32.3z" />
        </symbol>
        <symbol id="report-center" viewBox="0 0 75 75">
            <path fill="#FFFFFF" d="M37.8,73.6c-20,0-36.2-16.2-36.2-36.2c0-20,16.2-36.2,36.2-36.2c20,0,36.2,16.2,36.2,36.2
	C74,57.4,57.8,73.6,37.8,73.6z" />
            <g>
                <g>
                    <rect x="29" y="34.2" fill="#E33B5A" width="4.3" height="9.3" />
                    <rect x="35.6" y="32.1" fill="#E33B5A" width="4.3" height="11.4" />
                    <rect x="42.2" y="30.1" fill="#E33B5A" width="4.3" height="13.4" />
                </g>
            </g>
        </symbol>
    </defs>
</svg>