<?xml version="1.0" encoding="utf-8"?>
<!-- Generator: Adobe Illustrator 16.0.0, SVG Export Plug-In . SVG Version: 6.00 Build 0)  -->
<!DOCTYPE svg PUBLIC "-//W3C//DTD SVG 1.1//EN" "http://www.w3.org/Graphics/SVG/1.1/DTD/svg11.dtd">
<svg version="1.1" id="Layer_1" xmlns="http://www.w3.org/2000/svg" xmlns:xlink="http://www.w3.org/1999/xlink" x="0px" y="0px"
	 width="75px" height="75px" viewBox="0 0 75 75" enable-background="new 0 0 75 75" xml:space="preserve">
<circle fill="#FFFFFF" cx="37.8" cy="37.4" r="36.2"/>
<path fill="#407C98" d="M32.8,30.3l-1,0.9c-0.4,0.3-0.4,0.9-0.1,1.3l0.5,0.6c-0.4,0.6-0.7,1.2-0.9,1.8l-0.8,0c-0.5,0-0.9,0.4-1,0.9
	l-0.1,1.4c0,0.5,0.4,0.9,0.9,1l0.8,0c0.1,0.7,0.3,1.3,0.7,1.9l-0.6,0.5c-0.4,0.3-0.4,0.9-0.1,1.3l0.9,1c0.3,0.4,0.9,0.4,1.3,0.1
	l0.6-0.5c0.6,0.4,1.2,0.7,1.8,0.9l0,0.8c0,0.5,0.4,0.9,0.9,1l1.4,0.1c0.5,0,0.9-0.4,1-0.9l0-0.8c0.7-0.1,1.3-0.3,1.9-0.7l0.5,0.6
	c0.3,0.4,0.9,0.4,1.3,0.1l1-0.9c0.4-0.3,0.4-0.9,0.1-1.3l-0.5-0.6c0.4-0.6,0.7-1.2,0.9-1.8l0.8,0c0.5,0,0.9-0.4,1-0.9l0.1-1.4
	c0-0.5-0.4-0.9-0.9-1l-0.8,0c-0.1-0.7-0.3-1.3-0.7-1.9l0.6-0.5c0.4-0.3,0.4-0.9,0.1-1.3l-0.9-1c-0.3-0.4-0.9-0.4-1.3-0.1l-0.6,0.5
	c-0.6-0.4-1.2-0.7-1.8-0.9l0-0.8c0-0.5-0.4-0.9-0.9-1l-1.4-0.1c-0.5,0-0.9,0.4-1,0.9l0,0.8c-0.7,0.1-1.3,0.3-1.9,0.7l-0.5-0.6
	C33.8,30,33.2,30,32.8,30.3z M34.8,33.6c1.8-1.6,4.6-1.5,6.2,0.3c1.6,1.8,1.5,4.6-0.3,6.2c-1.8,1.6-4.6,1.5-6.2-0.3
	C32.9,38,33,35.2,34.8,33.6z"/>
</svg>
