<?xml version="1.0" encoding="utf-8"?>
<!-- Generator: Adobe Illustrator 16.0.0, SVG Export Plug-In . SVG Version: 6.00 Build 0)  -->
<!DOCTYPE svg PUBLIC "-//W3C//DTD SVG 1.1//EN" "http://www.w3.org/Graphics/SVG/1.1/DTD/svg11.dtd">
<svg version="1.1" id="Layer_1" xmlns="http://www.w3.org/2000/svg" xmlns:xlink="http://www.w3.org/1999/xlink" x="0px" y="0px"
	 width="75px" height="75px" viewBox="0 0 75 75" enable-background="new 0 0 75 75" xml:space="preserve">
<circle fill="#FFFFFF" cx="37.8" cy="37.4" r="36.2"/>
<path fill="#FDC92C" d="M35.5,33c0-0.9,1.3-1.1,2.5-1.1c1.1,0,2.6,0.5,3.9,1.2l0.2-2.5c-0.6-0.4-2.1-0.8-3.6-0.9l0.4-2.6h-2.4
	l0.4,2.6c-3.1,0.3-4.1,2.1-4.1,3.6c0,3.8,7.1,3,7.1,5.3c0,0.9-0.8,1.2-2.3,1.2c-2,0-3.5-0.7-4.2-1.4l-0.4,2.9
	c0.7,0.4,2.2,0.8,3.9,0.9l-0.4,2.5h2.4l-0.4-2.5c3.6-0.3,4.3-2.2,4.3-3.5C42.8,34,35.5,35.1,35.5,33z"/>
</svg>
