<svg xmlns="http://www.w3.org/2000/svg" xmlns:xlink="http://www.w3.org/1999/xlink" width="400" height="130" viewBox="0 0 400 130"><image overflow="visible" opacity=".7" width="511" height="511" xlink:href="F5A45420.png" transform="matrix(.24 0 0 .24 1.187 4.925)"/><image overflow="visible" opacity=".7" width="511" height="511" xlink:href="F5A45421.png" transform="matrix(.24 0 0 .24 91.17 6.243)"/><image overflow="visible" opacity=".7" width="511" height="511" xlink:href="F5A45427.png" transform="matrix(.24 0 0 .24 185.991 6.243)"/><image overflow="visible" opacity=".7" width="511" height="511" xlink:href="F5A45422.png" transform="matrix(.24 0 0 .24 276.419 6.243)"/><path fill="#FFF" d="M337.7 93.6c-20 0-36.2-16.2-36.2-36.2 0-20 16.2-36.2 36.2-36.2 20 0 36.2 16.2 36.2 36.2 0 20-16.2 36.2-36.2 36.2z"/><path fill="#E33B5A" d="M337.7 93.6c-20 0-36.2-16.2-36.2-36.2h-20.2c0 31.1 25.2 56.4 56.4 56.4 31.1 0 56.4-25.2 56.4-56.4h-20.2c0 20-16.2 36.2-36.2 36.2z"/><circle fill="#FFF" cx="245.1" cy="57.4" r="36.2"/><path fill="#FDC92C" d="M245.1 21.2c-20 0-36.2 16.2-36.2 36.2h-20.2c0-31.1 25.2-56.4 56.4-56.4 31.1 0 56.4 25.2 56.4 56.4h-20.2c0-20-16.2-36.2-36.2-36.2z"/><path fill="#FFF" d="M152.5 93.6c-20 0-36.2-16.2-36.2-36.2 0-20 16.2-36.2 36.2-36.2 20 0 36.2 16.2 36.2 36.2 0 20-16.2 36.2-36.2 36.2z"/><path fill="#126A9C" d="M152.5 93.6c-20 0-36.2-16.2-36.2-36.2H96.1c0 31.1 25.2 56.4 56.4 56.4s56.4-25.2 56.4-56.4h-20.2c0 20-16.2 36.2-36.2 36.2z"/><circle fill="#FFF" cx="59.8" cy="57.4" r="36.2"/><path fill="#409E9C" d="M59.8 21.2c-20 0-36.2 16.2-36.2 36.2H3.4C3.4 26.3 28.7 1 59.8 1c31.1 0 56.4 25.2 56.4 56.4H96.1c0-20-16.3-36.2-36.3-36.2z"/><path fill="#CC3353" d="M384 71.9l-14.5-14.5h4.5c0-20-16.2-36.2-36.2-36.2-20 0-36.2 16.2-36.2 36.2h-20.2c0-31.1 25.2-56.4 56.4-56.4 31.1 0 56.4 25.2 56.4 56.4h4.4L384 71.9z"/><path fill="#F1B31C" d="M291.4 42.9l-14.5 14.5h4.5c0 20-16.2 36.2-36.2 36.2-20 0-36.2-16.2-36.2-36.2h-20.2c0 31.1 25.2 56.4 56.4 56.4 31.1 0 56.4-25.2 56.4-56.4h4.4l-14.6-14.5z"/><path fill="#1378BA" d="M198.7 71.9l-14.5-14.5h4.5c0-20-16.2-36.2-36.2-36.2-20 0-36.2 16.2-36.2 36.2H96.1C96.1 26.3 121.3 1 152.5 1s56.4 25.2 56.4 56.4h4.4l-14.6 14.5z"/><path fill="#45AEAE" d="M106.1 42.9L91.6 57.4h4.5c0 20-16.2 36.2-36.2 36.2-20 0-36.2-16.2-36.2-36.2H3.4c0 31.1 25.2 56.4 56.4 56.4 31.1 0 56.4-25.2 56.4-56.4h4.4l-14.5-14.5z"/><path d="M329 54.2h4.3v9.3H329zm6.5-2.1h4.3v11.4h-4.3zm6.6-2h4.3v13.4h-4.3z" fill="#E33B5A"/><g fill="#45AEAE"><circle cx="59.8" cy="50" r="5.1"/><path d="M68.6 53.5h-2.4c-1.2 2.2-3.6 3.7-6.4 3.7-2.7 0-5.1-1.5-6.4-3.7H51c-3.8 0-3.3 7.9-3.3 11.7h24.1c.1-3.8.6-11.7-3.2-11.7z"/></g><path fill="#FDC92C" d="M242.8 52.3c0-.9 1.3-1.1 2.5-1.1 1.1 0 2.6.5 3.9 1.2l.2-2.5c-.6-.4-2.1-.8-3.6-.9l.4-2.6h-2.4l.4 2.6c-3.1.3-4.1 2.1-4.1 3.6 0 3.8 7.1 3 7.1 5.3 0 .9-.8 1.2-2.3 1.2-2 0-3.5-.7-4.2-1.4l-.4 2.9c.7.4 2.2.8 3.9.9l-.4 2.5h2.4l-.4-2.5c3.6-.3 4.3-2.2 4.3-3.5 0-4.7-7.3-3.5-7.3-5.7z"/><path fill="#407C98" d="M147.5 50.2l-1 .9c-.4.3-.4.9-.1 1.3l.5.6c-.4.6-.7 1.2-.9 1.8h-.8c-.5 0-.9.4-1 .9l-.1 1.4c0 .5.4 1 .9 1h.8c.1.7.3 1.3.7 1.9l-.6.5c-.4.3-.4.9-.1 1.3l.9 1c.3.4.9.4 1.3.1l.6-.5c.6.4 1.2.7 1.8.9v.8c0 .5.4.9.9 1l1.4.1c.5 0 .9-.4 1-.9v-.8c.6-.1 1.3-.3 1.9-.7l.5.6c.3.4.9.4 1.3.1l1-.9c.4-.3.4-.9.1-1.3l-.5-.6c.4-.6.7-1.2.9-1.8h.8c.5 0 .9-.4 1-.9l.1-1.4c0-.5-.4-.9-.9-1h-.8c-.1-.7-.3-1.3-.7-1.9l.6-.5c.4-.3.4-.9.1-1.3l-.9-1c-.3-.4-.9-.4-1.3-.1l-.6.5c-.6-.4-1.2-.7-1.8-.9v-.8c0-.5-.4-.9-.9-1l-1.4-.1c-.5 0-.9.4-1 .9v.8c-.7.1-1.3.3-1.9.7l-.5-.6c-.3-.4-.9-.4-1.3-.1zm2 3.3c1.8-1.6 4.6-1.5 6.2.3 1.6 1.8 1.5 4.6-.3 6.2-1.8 1.6-4.6 1.5-6.2-.3-1.6-1.8-1.5-4.6.3-6.2z"/></svg>