<svg xmlns="http://www.w3.org/2000/svg" width="75" height="75" viewBox="0 0 75 75"><circle fill="#FFF" cx="37.8" cy="37.4" r="36.2"/><path fill="#407C98" d="M32.8 30.3l-1 .9c-.4.3-.4.9-.1 1.3l.5.6c-.4.6-.7 1.2-.9 1.8h-.8c-.5 0-.9.4-1 .9l-.1 1.4c0 .5.4.9.9 1h.8c.1.7.3 1.3.7 1.9l-.6.5c-.4.3-.4.9-.1 1.3l.9 1c.3.4.9.4 1.3.1l.6-.5c.6.4 1.2.7 1.8.9v.8c0 .5.4.9.9 1l1.4.1c.5 0 .9-.4 1-.9v-.8c.7-.1 1.3-.3 1.9-.7l.5.6c.3.4.9.4 1.3.1l1-.9c.4-.3.4-.9.1-1.3l-.5-.6c.4-.6.7-1.2.9-1.8h.8c.5 0 .9-.4 1-.9l.1-1.4c0-.5-.4-.9-.9-1h-.8c-.1-.7-.3-1.3-.7-1.9l.6-.5c.4-.3.4-.9.1-1.3l-.9-1c-.3-.4-.9-.4-1.3-.1l-.6.5c-.6-.4-1.2-.7-1.8-.9v-.8c0-.5-.4-.9-.9-1l-1.4-.1c-.5 0-.9.4-1 .9v.8c-.7.1-1.3.3-1.9.7l-.5-.6c-.3-.4-.9-.4-1.3-.1zm2 3.3c1.8-1.6 4.6-1.5 6.2.3 1.6 1.8 1.5 4.6-.3 6.2-1.8 1.6-4.6 1.5-6.2-.3-1.6-1.8-1.5-4.6.3-6.2z"/></svg>