<svg xmlns="http://www.w3.org/2000/svg" width="250" height="250" viewBox="0 0 250 250"><ellipse fill="#E7E7E7" cx="101.4" cy="232.8" rx="96.5" ry="7.1"/><path fill="#F8A02A" d="M84.7 187S78 199.6 82 223c0 0-8.7-11.4-16.1-1.8 0 0-5.7 11.1 6.4 12.9s21.5-4.9 21.5-4.9-5.8-21.8 3.5-39.2l-12.6-3zm43-5.9s13.6 4.4 27.1 24c0 0-1.7-14.2 10.2-12.5 0 0 11.8 4 4.4 13.7-7.4 9.8-18.9 11.5-18.9 11.5s-11-19.7-29.8-25.6l7-11.1zm48.2-57.9s7.1 23.6 25.5 8.5c13.2-10.9 8.7-24.1 10.7-30.3 2-6.1 15.7-11.3 21.8-2.2 6.1 9.1 1 43.4-32.2 50.6-33.2 7.2-41.9-5.9-41.9-5.9l16.1-20.7zM68.1 153.5s-21.7-11.7-24 12c-1.7 17.1 10.9 23.2 13.8 28.9 2.9 5.7-3.1 19-13.9 16.9-10.8-2.1-31.4-30-13-58.5 18.4-28.6 33.8-25.5 33.8-25.5l3.3 26.2z"/><path fill="#FBB623" d="M69.5 187.6S15 160.5 32.7 94.4C46.6 42.9 96 25.8 158.2 11v15l22.1-4.5V41l15.7.5-13.3 25.9s27.9 96.3-43.7 123c-32.1 11.9-56.1 4.9-69.5-2.8z"/><circle fill="#EAA124" cx="109.8" cy="120.2" r="39.3"/><circle fill="#FFF" cx="111.1" cy="116.3" r="36.8"/><circle fill="#422F17" cx="126.9" cy="111.6" r="17.1"/><circle fill="#FFF" cx="133.7" cy="101.2" r="7.4"/><path fill="#E08827" d="M72.5 80.9s24-21.5 53.7-11c0 0-29.9-18.5-53.7 11z"/><path fill="#F8A02A" d="M220.8 108.7c-2.5 1.1-4.4-1.1-6.5-2.5-2-1.4-6.8-2.9-8.8-4.2-4.8-3.2-3.3-7.4-1.1-9.1 2.7-2 9-2 13 3.6l3.1 4.4c2.7 3.4 2.6 6.9.3 7.8zm1.4-7.7c-2.8-.4-3.3-3.9-3.2-5.7l-.1-7.3c.3-4.3 3.2-6 6.1-5.6 2.8.4 5.3 2.9 4.2 7.1l-2.2 6.9c-.5 2.9-2.8 4.9-4.8 4.6zm6.3 1.6c-2.3-1.7-1.2-5-.2-6.6l3.3-6.5c2.2-3.7 5.6-3.8 8-2.1 2.3 1.7 3.3 5 .5 8.2l-5.2 5.2c-1.8 2.2-4.8 3-6.4 1.8z"/><path fill="#F8A02A" d="M231.2 106.2c-.7-2.2 1.7-3.8 3.1-4.4l5.3-2.6c3.3-1.3 5.5.3 6.2 2.6.7 2.2-.3 4.9-3.8 5.6l-5.9.8c-2.2.6-4.5-.4-4.9-2z"/><circle fill="#EAA124" cx="172.1" cy="81.5" r="6.3"/><circle fill="#EAA124" cx="158.8" cy="66.3" r="4.8"/><circle fill="#EAA124" cx="157.1" cy="92.1" r="5.1"/><path fill="#EAA124" d="M174.6 105.2c0 5.3 4.3 9.6 9.6 9.6 1.3 0 2.5-.3 3.7-.7.2-6.3 0-12.4-.4-17.9-1-.4-2.1-.6-3.2-.6-5.4 0-9.7 4.3-9.7 9.6z"/><circle fill="#FFF" cx="120.5" cy="119.7" r="3.4"/><g fill-rule="evenodd" clip-rule="evenodd"><path fill="#F79F29" d="M109.9 171.1c-17.8.6-26 16.5-18.2 12.7 8.5-4.1 28-4.9 36.8-1.3 8 3.3-.8-12-18.6-11.4z"/><path fill="#F79F29" d="M109.9 171.9c-15.4.5-23.4 13.6-16.7 10.4 7.3-3.6 26.4-4.2 34-1.1 6.9 2.8-1.9-9.8-17.3-9.3z"/><path fill="#D77427" d="M108.8 173.5c-.8.5-1.3 1.4-1.2 2.3.1 1.4 1.3 2.5 2.7 2.5 1.4-.1 2.6-1.3 2.5-2.7 0-1-.7-1.9-1.5-2.2-1-.5-1 0-.7.9.2.5.6.9.6 1.4 0 .5-.4 1-.9 1s-1-.4-1-.9c0-.4.4-1 .5-1.6.1-1-.2-1.2-1-.7z"/><path d="M97.6 180.8c-.1-.3-.3-.7-.4-1-.3-.5-.7-.8-1.3-.8-1 .1-2 .3-3 .7-.5.2-.8.7-.8 1.3 0 .6.1 1.1.3 1.6.2-.1.5-.2.8-.3 1.2-.6 2.7-1.1 4.4-1.5zm6.1-1.1l-.3-.9c-.2-.5-.6-.9-1.1-.9-1-.1-2.1 0-3.1.3-.6.1-.9.6-.9 1.1 0 .5-.1.9 0 1.4 1.7-.4 3.5-.8 5.4-1zm6.1-.4c0-.3-.1-.6-.2-.9-.2-.5-.5-.9-1.1-1-1-.2-2.1-.1-3.1.1-.6.1-.9.5-1 1.1-.1.4-.1.8-.1 1.1 1.8-.2 3.6-.4 5.5-.4zm12.8.7c.1-.3.2-.7.4-1 .3-.5.6-.9 1.2-.9 1 0 2.1.2 3 .5.5.2.8.6.9 1.2 0 .6 0 1.1-.1 1.6-.2-.1-.5-.2-.8-.3-1.2-.4-2.8-.8-4.6-1.1zm-6.1-.7c0-.3.1-.6.2-.9.2-.5.5-.9 1.1-1 1-.2 2.1-.1 3.1.1.6.1.9.5 1 1.1.1.5.1.9.1 1.4-1.7-.4-3.6-.6-5.5-.7zm-6.1-.1c0-.3.1-.6.2-.9.2-.6.4-1 1-1.1 1-.2 2-.3 3.1-.1.6.1 1 .4 1.1 1 .1.4.2.8.2 1.1h-5.6zM98 175.1c0 .1.1.3.1.4.1.6.1 1.1-.3 1.4-.8.7-1.6 1.3-2.6 1.7-.5.2-1 .1-1.4-.3l-.2-.2c1.2-.9 2.7-2 4.4-3zm5.4-2.2c.1.3.1.6.1.9 0 .6-.1 1-.6 1.3-.9.5-1.8.9-2.9 1.1-.6.1-1-.1-1.3-.6-.2-.2-.3-.5-.4-.7 1.5-.7 3.2-1.4 5.1-2zm6.1-.9v.8c0 .6-.2 1-.7 1.3-.9.4-1.9.7-3 .8-.6 0-1-.2-1.3-.7-.2-.4-.4-.9-.5-1.3 1.7-.6 3.5-.8 5.5-.9zm12.4 2.4c0 .1-.1.3-.1.4-.1.6 0 1.1.4 1.4.8.7 1.7 1.2 2.7 1.5.5.2 1 0 1.4-.4l.2-.2c-1.2-.9-2.7-1.9-4.6-2.7zm-5.5-1.9c-.1.3-.1.6-.1.9 0 .6.2 1 .7 1.3.9.5 1.9.8 2.9.9.6.1 1-.2 1.3-.7.1-.3.3-.5.4-.8-1.5-.6-3.3-1.2-5.2-1.6zm-6.1-.6v.8c.1.6.3 1 .8 1.2 1 .4 2 .6 3 .6.6 0 1-.3 1.2-.8.2-.4.3-.9.4-1.3-1.6-.3-3.5-.5-5.4-.5z" fill="#FFF"/></g></svg>