<svg xmlns="http://www.w3.org/2000/svg" width="80" height="75" viewBox="0 0 80 75"><g fill="#0B76BB"><path d="M68.125 37.969c0-3.75-2.93-5.742-7.031-5.742H49.258c.82-3.164 1.289-6.211 1.289-8.789 0-10.195-2.813-12.305-5.273-12.305-1.641 0-2.813.117-4.453 1.172-.469.234-.703.703-.82 1.172l-1.758 9.492c-1.875 5.039-6.68 9.375-10.547 12.305v25.078c1.289 0 2.93.703 4.453 1.523 1.875.938 3.867 1.875 6.094 1.875H55c3.516 0 6.094-2.813 6.094-5.273 0-.469 0-.938-.117-1.289 2.227-.82 3.633-2.695 3.633-4.805 0-1.055-.234-1.992-.586-2.695 1.289-.938 2.695-2.461 2.695-4.336 0-.938-.469-2.109-1.172-2.93 1.523-1.172 2.578-2.813 2.578-4.453zm-3.633 0c0 2.227-2.344 2.461-2.695 3.516-.352 1.172 1.406 1.641 1.406 3.75 0 2.227-2.695 2.227-3.047 3.281-.469 1.289.82 1.758.82 3.867v.352c-.352 1.758-3.047 1.875-3.516 2.578-.469.82.117 1.289.117 3.164 0 1.055-1.172 1.758-2.578 1.758H38.241c-1.289 0-2.93-.703-4.453-1.523-1.406-.703-2.813-1.406-4.336-1.758V38.321c4.336-3.281 9.961-8.32 12.188-14.414 0-.117 0-.234.117-.234l1.641-8.789c.586-.234 1.055-.234 1.992-.234.352 0 1.758 2.109 1.758 8.789 0 2.578-.469 5.508-1.406 8.789h-.469c-.938 0-1.758.82-1.758 1.758s.82 1.758 1.758 1.758h15.82c1.759-.002 3.399.818 3.399 2.225z"/><path d="M25.937 63.867H15.39c-1.992 0-3.516-1.523-3.516-3.516V35.742c0-1.992 1.523-3.516 3.516-3.516h10.547c1.992 0 3.516 1.523 3.516 3.516v24.609c0 1.993-1.523 3.516-3.516 3.516zM15.391 35.742v24.609h10.547V35.742H15.391z"/></g></svg>