<svg xmlns="http://www.w3.org/2000/svg" width="80" height="75" viewBox="0 0 80 75"><g fill="#E23A59"><path d="M40.117 65.508c-15.469 0-28.008-12.539-28.008-28.008S24.648 9.492 40.117 9.492 68.125 22.031 68.125 37.5c0 15.352-12.539 28.008-28.008 28.008zm0-53.086c-13.711 0-24.961 11.25-24.961 24.961s11.25 24.961 24.961 24.961 24.961-11.25 24.961-24.961-11.25-24.961-24.961-24.961z"/><path d="M27.93 51.797l-2.227-2.227 26.484-26.484 2.227 2.226L27.93 51.797"/><path d="M52.187 51.797L25.703 25.312l2.227-2.226L54.414 49.57l-2.227 2.227"/></g></svg>