<svg xmlns="http://www.w3.org/2000/svg" width="80" height="75" viewBox="0 0 80 75"><g fill="#0B76BB"><path d="M35.312 62.227a5.578 5.578 0 0 1-3.984-1.641L15.742 45a5.588 5.588 0 0 1 0-7.969l20.859-20.859c1.875-1.875 5.273-3.281 7.852-3.281h13.359c3.047 0 5.625 2.578 5.625 5.625v13.359c0 2.578-1.406 5.977-3.281 7.852L39.297 60.586a5.58 5.58 0 0 1-3.985 1.641zm9.141-45.821c-1.641 0-4.219 1.055-5.391 2.227L18.203 39.492c-.82.82-.82 2.109 0 2.93l15.586 15.586c.82.82 2.227.82 2.93 0l20.859-20.859c1.172-1.172 2.227-3.633 2.227-5.391V18.399a2.1 2.1 0 0 0-2.109-2.109H44.454v.116z"/><path d="M49.375 33.867c-3.75 0-6.914-3.047-6.914-6.914 0-3.75 3.047-6.914 6.914-6.914 3.75 0 6.914 3.047 6.914 6.914 0 3.75-3.047 6.914-6.914 6.914zm0-10.547c-1.992 0-3.633 1.641-3.633 3.633s1.641 3.633 3.633 3.633 3.633-1.641 3.633-3.633-1.641-3.633-3.633-3.633z"/></g></svg>