<svg xmlns="http://www.w3.org/2000/svg" width="80" height="75" viewBox="0 0 80 75"><g fill="#FCC82B"><path d="M15.156 63.281l4.336-17.461 26.602-26.602 13.125 13.125-26.602 26.602-17.461 4.336zm7.383-15.82l-2.813 11.25 11.25-2.813 23.672-23.672-8.438-8.438-23.671 23.673z"/><path d="M29.805 57.891a12.792 12.792 0 0 0-9.258-9.258l.82-3.281a15.784 15.784 0 0 1 11.602 11.602l-3.164.937"/><path d="M29.453 51.445l-2.344-2.461 23.321-23.32 2.343 2.344-23.32 23.437M17.5 60.937l5.156-1.289a5.387 5.387 0 0 0-3.867-3.867L17.5 60.937m43.008-29.882L47.383 17.93l5.273-5.273.82.117c6.328.82 11.367 5.859 12.188 12.188l.117.82-5.273 5.273zM52.187 17.93l8.438 8.438 1.641-1.641a11.1 11.1 0 0 0-8.438-8.438l-1.641 1.641z"/></g></svg>