<?xml version="1.0" encoding="utf-8"?>
<!-- Generator: Adobe Illustrator 16.0.0, SVG Export Plug-In . SVG Version: 6.00 Build 0)  -->
<!DOCTYPE svg PUBLIC "-//W3C//DTD SVG 1.1//EN" "http://www.w3.org/Graphics/SVG/1.1/DTD/svg11.dtd">
<svg version="1.1" id="Layer_1" xmlns="http://www.w3.org/2000/svg" xmlns:xlink="http://www.w3.org/1999/xlink" x="0px" y="0px"
	 width="80px" height="75px" viewBox="0 0 80 75" enable-background="new 0 0 80 75" xml:space="preserve">
<g>
	<g id="Icon-Arrow-Left" transform="translate(28.000000, 328.000000)">
		<path id="Fill-25" fill="#727272" d="M12-262.492c-15.469,0-28.008-12.539-28.008-28.008S-3.469-318.508,12-318.508
			s28.008,12.539,28.008,28.008S27.469-262.492,12-262.492L12-262.492z M12-315.461c-13.711,0-24.961,11.25-24.961,24.961
			S-1.711-265.539,12-265.539s24.961-11.25,24.961-24.961S25.711-315.461,12-315.461L12-315.461z"/>
		<polyline id="Fill-26" fill="#727272" points="12.586,-274.445 -3.469,-290.5 12.586,-306.555 14.695,-304.328 0.984,-290.5 
			14.695,-276.672 12.586,-274.445 		"/>
		<polygon id="Fill-27" fill="#727272" points="-1.242,-292.141 26.883,-292.141 26.883,-288.859 -1.242,-288.859 		"/>
	</g>
</g>
</svg>
