<?xml version="1.0" encoding="utf-8"?>
<!-- Generator: Adobe Illustrator 16.0.0, SVG Export Plug-In . SVG Version: 6.00 Build 0)  -->
<!DOCTYPE svg PUBLIC "-//W3C//DTD SVG 1.1//EN" "http://www.w3.org/Graphics/SVG/1.1/DTD/svg11.dtd">
<svg version="1.1" id="Layer_1" xmlns="http://www.w3.org/2000/svg" xmlns:xlink="http://www.w3.org/1999/xlink" x="0px" y="0px"
	 width="80px" height="75px" viewBox="0 0 80 75" enable-background="new 0 0 80 75" xml:space="preserve">
<g>
	<g id="Icon-Like" transform="translate(78.000000, 528.000000)">
		<path id="Fill-4_2_" fill="#0B76BB" d="M-9.875-490.031c0-3.75-2.93-5.742-7.031-5.742h-11.836
			c0.82-3.164,1.289-6.211,1.289-8.789c0-10.195-2.813-12.305-5.273-12.305c-1.641,0-2.813,0.117-4.453,1.172
			c-0.469,0.234-0.703,0.703-0.82,1.172l-1.758,9.492c-1.875,5.039-6.68,9.375-10.547,12.305v25.078c1.289,0,2.93,0.703,4.453,1.523
			c1.875,0.938,3.867,1.875,6.094,1.875H-23c3.516,0,6.094-2.813,6.094-5.273c0-0.469,0-0.938-0.117-1.289
			c2.227-0.82,3.633-2.695,3.633-4.805c0-1.055-0.234-1.992-0.586-2.695c1.289-0.938,2.695-2.461,2.695-4.336
			c0-0.938-0.469-2.109-1.172-2.93C-10.93-486.75-9.875-488.391-9.875-490.031L-9.875-490.031z M-13.508-490.031
			c0,2.227-2.344,2.461-2.695,3.516c-0.352,1.172,1.406,1.641,1.406,3.75c0,2.227-2.695,2.227-3.047,3.281
			c-0.469,1.289,0.82,1.758,0.82,3.867c0,0.117,0,0.234,0,0.352c-0.352,1.758-3.047,1.875-3.516,2.578
			c-0.469,0.82,0.117,1.289,0.117,3.164c0,1.055-1.172,1.758-2.578,1.758h-16.758c-1.289,0-2.93-0.703-4.453-1.523
			c-1.406-0.703-2.813-1.406-4.336-1.758v-18.633c4.336-3.281,9.961-8.32,12.188-14.414c0-0.117,0-0.234,0.117-0.234l1.641-8.789
			c0.586-0.234,1.055-0.234,1.992-0.234c0.352,0,1.758,2.109,1.758,8.789c0,2.578-0.469,5.508-1.406,8.789h-0.469
			c-0.938,0-1.758,0.82-1.758,1.758s0.82,1.758,1.758,1.758h15.82C-15.148-492.258-13.508-491.438-13.508-490.031L-13.508-490.031z"
			/>
		<path id="Fill-6_2_" fill="#0B76BB" d="M-52.063-464.133h-10.547c-1.992,0-3.516-1.523-3.516-3.516v-24.609
			c0-1.992,1.523-3.516,3.516-3.516h10.547c1.992,0,3.516,1.523,3.516,3.516v24.609C-48.547-465.656-50.07-464.133-52.063-464.133
			L-52.063-464.133z M-62.609-492.258v24.609h10.547v-24.609H-62.609L-62.609-492.258z"/>
	</g>
</g>
</svg>
