<?xml version="1.0" encoding="utf-8"?>
<!-- Generator: Adobe Illustrator 16.0.0, SVG Export Plug-In . SVG Version: 6.00 Build 0)  -->
<!DOCTYPE svg PUBLIC "-//W3C//DTD SVG 1.1//EN" "http://www.w3.org/Graphics/SVG/1.1/DTD/svg11.dtd">
<svg version="1.1" id="Layer_1" xmlns="http://www.w3.org/2000/svg" xmlns:xlink="http://www.w3.org/1999/xlink" x="0px" y="0px"
	 width="80px" height="75px" viewBox="0 0 80 75" enable-background="new 0 0 80 75" xml:space="preserve">
<g>
	<g id="Icon-Trash" transform="translate(232.000000, 228.000000)">
		<polygon id="Fill-6" fill="#E23A59" points="-200.789,-201.164 -197.273,-201.164 -197.273,-173.039 -200.789,-173.039 		"/>
		<polygon id="Fill-7" fill="#E23A59" points="-193.758,-201.164 -190.242,-201.164 -190.242,-173.039 -193.758,-173.039 		"/>
		<polygon id="Fill-8" fill="#E23A59" points="-186.727,-201.164 -183.211,-201.164 -183.211,-173.039 -186.727,-173.039 		"/>
		<polygon id="Fill-9" fill="#E23A59" points="-214.852,-211.711 -169.148,-211.711 -169.148,-208.195 -214.852,-208.195 		"/>
		<path id="Fill-10" fill="#E23A59" d="M-183.328-209.953h-3.281v-3.516c0-1.055-0.82-1.875-1.875-1.875h-7.031
			c-1.055,0-1.875,0.82-1.875,1.875v3.516h-3.281v-3.516c0-2.813,2.344-5.156,5.156-5.156h7.031c2.813,0,5.156,2.344,5.156,5.156
			V-209.953"/>
		<path id="Fill-11" fill="#E23A59" d="M-181.453-162.492h-21.094c-2.813,0-5.273-2.344-5.508-5.156l-3.281-42.188l3.516-0.234
			l3.281,42.188c0.117,1.055,1.055,1.875,1.992,1.875h21.094c1.055,0,1.992-0.938,1.992-1.875l3.281-42.188l3.516,0.234
			l-3.281,42.188C-176.18-164.719-178.641-162.492-181.453-162.492"/>
	</g>
</g>
</svg>
