<?xml version="1.0" encoding="utf-8"?>
<!-- Generator: Adobe Illustrator 16.0.0, SVG Export Plug-In . SVG Version: 6.00 Build 0)  -->
<!DOCTYPE svg PUBLIC "-//W3C//DTD SVG 1.1//EN" "http://www.w3.org/Graphics/SVG/1.1/DTD/svg11.dtd">
<svg version="1.1" id="Layer_1" xmlns="http://www.w3.org/2000/svg" xmlns:xlink="http://www.w3.org/1999/xlink" x="0px" y="0px"
	 width="80px" height="75px" viewBox="0 0 80 75" enable-background="new 0 0 80 75" xml:space="preserve">
<g>
	<g id="Icon-Close-O" transform="translate(378.000000, 278.000000)">
		<path id="Fill-52" fill="#E23A59" d="M-337.883-212.492c-15.469,0-28.008-12.539-28.008-28.008s12.539-28.008,28.008-28.008
			s28.008,12.539,28.008,28.008C-309.875-225.148-322.414-212.492-337.883-212.492L-337.883-212.492z M-337.883-265.578
			c-13.711,0-24.961,11.25-24.961,24.961s11.25,24.961,24.961,24.961s24.961-11.25,24.961-24.961S-324.172-265.578-337.883-265.578
			L-337.883-265.578z"/>
		<polyline id="Fill-53" fill="#E23A59" points="-350.07,-226.203 -352.297,-228.43 -325.813,-254.914 -323.586,-252.688 
			-350.07,-226.203 		"/>
		<polyline id="Fill-54" fill="#E23A59" points="-325.813,-226.203 -352.297,-252.688 -350.07,-254.914 -323.586,-228.43 
			-325.813,-226.203 		"/>
	</g>
</g>
</svg>
