<?xml version="1.0" encoding="utf-8"?>
<!-- Generator: Adobe Illustrator 16.0.0, SVG Export Plug-In . SVG Version: 6.00 Build 0)  -->
<!DOCTYPE svg PUBLIC "-//W3C//DTD SVG 1.1//EN" "http://www.w3.org/Graphics/SVG/1.1/DTD/svg11.dtd">
<svg version="1.1" id="Layer_1" xmlns="http://www.w3.org/2000/svg" xmlns:xlink="http://www.w3.org/1999/xlink" x="0px" y="0px"
	 width="80px" height="75px" viewBox="0 0 80 75" enable-background="new 0 0 80 75" xml:space="preserve">
<g>
	<g id="Icon-Tag" transform="translate(79.000000, 382.000000)">
		<path id="Fill-129" fill="#0B76BB" d="M-43.688-319.773c-1.523,0-2.93-0.586-3.984-1.641L-63.258-337
			c-2.227-2.227-2.227-5.742,0-7.969l20.859-20.859c1.875-1.875,5.273-3.281,7.852-3.281h13.359c3.047,0,5.625,2.578,5.625,5.625
			v13.359c0,2.578-1.406,5.977-3.281,7.852l-20.859,20.859C-40.758-320.359-42.164-319.773-43.688-319.773L-43.688-319.773z
			 M-34.547-365.594c-1.641,0-4.219,1.055-5.391,2.227l-20.859,20.859c-0.82,0.82-0.82,2.109,0,2.93l15.586,15.586
			c0.82,0.82,2.227,0.82,2.93,0l20.859-20.859c1.172-1.172,2.227-3.633,2.227-5.391v-13.359c0-1.172-0.938-2.109-2.109-2.109
			h-13.242V-365.594z"/>
		<path id="Fill-130" fill="#0B76BB" d="M-29.625-348.133c-3.75,0-6.914-3.047-6.914-6.914c0-3.75,3.047-6.914,6.914-6.914
			c3.75,0,6.914,3.047,6.914,6.914C-22.711-351.297-25.758-348.133-29.625-348.133L-29.625-348.133z M-29.625-358.68
			c-1.992,0-3.633,1.641-3.633,3.633s1.641,3.633,3.633,3.633s3.633-1.641,3.633-3.633S-27.633-358.68-29.625-358.68L-29.625-358.68
			z"/>
	</g>
</g>
</svg>
