<?xml version="1.0" encoding="utf-8"?>
<!-- Generator: Adobe Illustrator 16.0.0, SVG Export Plug-In . SVG Version: 6.00 Build 0)  -->
<!DOCTYPE svg PUBLIC "-//W3C//DTD SVG 1.1//EN" "http://www.w3.org/Graphics/SVG/1.1/DTD/svg11.dtd">
<svg version="1.1" id="Layer_1" xmlns="http://www.w3.org/2000/svg" xmlns:xlink="http://www.w3.org/1999/xlink" x="0px" y="0px"
	 width="80px" height="75px" viewBox="0 0 80 75" enable-background="new 0 0 80 75" xml:space="preserve">
<g>
	<g id="Icon-Pencil" transform="translate(179.000000, 382.000000)">
		<path id="Fill-168" fill="#FCC82B" d="M-163.844-318.719l4.336-17.461l26.602-26.602l13.125,13.125l-26.602,26.602
			L-163.844-318.719L-163.844-318.719z M-156.461-334.539l-2.813,11.25l11.25-2.813l23.672-23.672l-8.438-8.438L-156.461-334.539
			L-156.461-334.539z"/>
		<path id="Fill-169" fill="#FCC82B" d="M-149.195-324.109c-1.172-4.57-4.688-8.086-9.258-9.258l0.82-3.281
			c5.742,1.406,10.195,5.859,11.602,11.602L-149.195-324.109"/>
		<polyline id="Fill-170" fill="#FCC82B" points="-149.547,-330.555 -151.891,-333.016 -128.57,-356.336 -126.227,-353.992 
			-149.547,-330.555 		"/>
		<path id="Fill-171" fill="#FCC82B" d="M-161.5-321.063l5.156-1.289c-0.469-1.875-1.992-3.398-3.867-3.867L-161.5-321.063"/>
		<path id="Fill-172" fill="#FCC82B" d="M-118.492-350.945l-13.125-13.125l5.273-5.273l0.82,0.117
			c6.328,0.82,11.367,5.859,12.188,12.188l0.117,0.82L-118.492-350.945L-118.492-350.945z M-126.813-364.07l8.438,8.438l1.641-1.641
			c-0.938-4.219-4.219-7.5-8.438-8.438L-126.813-364.07L-126.813-364.07z"/>
	</g>
</g>
</svg>
