<?xml version="1.0" encoding="utf-8"?>
<!-- Generator: Adobe Illustrator 16.0.0, SVG Export Plug-In . SVG Version: 6.00 Build 0)  -->
<!DOCTYPE svg PUBLIC "-//W3C//DTD SVG 1.1//EN" "http://www.w3.org/Graphics/SVG/1.1/DTD/svg11.dtd">
<svg version="1.1" id="Layer_1" xmlns="http://www.w3.org/2000/svg" xmlns:xlink="http://www.w3.org/1999/xlink" x="0px" y="0px"
	 width="80px" height="75px" viewBox="0 0 80 75" enable-background="new 0 0 80 75" xml:space="preserve">
<g>
	<g id="Icon-Check" transform="translate(328.000000, 278.000000)">
		<path id="Fill-43" fill="#45AEAE" d="M-288-213.078c-15.117,0-27.422-12.305-27.422-27.422s12.305-27.422,27.422-27.422
			s27.422,12.305,27.422,27.422S-272.883-213.078-288-213.078L-288-213.078z M-288-264.992c-13.477,0-24.492,11.016-24.492,24.492
			s11.016,24.492,24.492,24.492s24.492-11.016,24.492-24.492S-274.523-264.992-288-264.992L-288-264.992z"/>
		<polyline id="Fill-44" fill="#45AEAE" points="-291.281,-228.664 -305.227,-242.727 -303.117,-244.836 -291.281,-232.883 
			-272.883,-251.281 -270.773,-249.172 -291.281,-228.664 		"/>
	</g>
</g>
</svg>
