<svg xmlns="http://www.w3.org/2000/svg" width="250" height="250" viewBox="0 0 250 250"><ellipse fill="#E7E7E7" cx="115" cy="240.6" rx="103" ry="7.6"/><path fill="#BA2457" d="M172.8 163.8s37.8.5 30.7-41.3c-5-29.2 19.3-25.2 19.3-25.2s25.3 5.3 11.1 43c-11.7 30.9-41 35.3-48.6 35.3l-12.5-11.8z"/><path fill="#28C2E4" d="M101.4 18.6S80 6.1 39.6 8.6C-.7 11.2 60.3 41 60.3 41s-33.4-8.6-33.1 4 27 17.9 27 17.9-28.6-6.4-26.8 8.3 18.3 13.6 18.3 13.6-25.1-1.4-20.8 12.4c4.2 13.8 38 20.8 38 20.8l38.5-99.4z"/><path fill="#BA2457" d="M70.7 211.3s-27.7 18.5-9.4 24.8 32-17.8 27.8-30.7c-4.3-12.8-18.4 5.9-18.4 5.9zm36.5-23.2s-13.2 47.8 4.9 50c30.7 3.7 14.2-24.5 10.3-37.4s-15.2-12.6-15.2-12.6zm41.9 0s-9.9 49.7 16.2 48c14.3-.9 18.2-16.6 3.7-20.3-12.1-3.1-19.9-27.7-19.9-27.7z"/><path fill="#EF446F" d="M31.8 208.5C24.4 140.7 30.4 87.2 96.9 2.1c0 0 139.6 22.5 91.5 206.4H31.8z"/><path fill="#BA2457" d="M54.7 157.2s-19.8-10.6-39 26.1c-17 32.5 30.7 39.9 32.2 17 2.5-35.3 18.2-36.8 6.8-43.1z"/><circle fill="#DE3969" cx="136.7" cy="110.9" r="44.9"/><circle fill="#FFF" cx="135.3" cy="106.3" r="42.1"/><circle fill="#461629" cx="147.2" cy="91.6" r="19.6"/><circle fill="#FFF" cx="146.8" cy="77.5" r="8.5"/><path fill="#680D2D" d="M91.8 195l70.9.5s.7-32.8-47.2-28C87.4 170.3 91.8 195 91.8 195z"/><path fill="#DE3969" d="M88.1 78.6s16.1-27.7 47.4-26.9c0 0-34-8.3-47.4 26.9z"/><path fill="#F2F2F2" d="M112.1 167.9s-6.1 15.5 1.2 16.1c7.3.5 10.6-.1 11.5-3 .9-2.8-1.9-14-1.9-14s-5.9-.3-10.8.9zm28.6 1.1s5.7 14.3-1.7 14.8c-7.3.5-10.6-.1-11.5-3-.9-2.8 1.8-13.6 1.8-13.6s6 .3 11.4 1.8z"/></svg>