<?xml version="1.0" encoding="utf-8"?>
<!-- Generator: Adobe Illustrator 16.0.0, SVG Export Plug-In . SVG Version: 6.00 Build 0)  -->
<!DOCTYPE svg PUBLIC "-//W3C//DTD SVG 1.1//EN" "http://www.w3.org/Graphics/SVG/1.1/DTD/svg11.dtd">
<svg version="1.1" id="Layer_1" xmlns="http://www.w3.org/2000/svg" xmlns:xlink="http://www.w3.org/1999/xlink" x="0px" y="0px"
	 width="250px" height="250px" viewBox="0 0 250 250" enable-background="new 0 0 250 250" xml:space="preserve">
<ellipse fill="#E7E7E7" cx="101.4" cy="232.8" rx="96.5" ry="7.1"/>
<path fill="#F8A02A" d="M84.7,187c0,0-6.7,12.6-2.7,36c0,0-8.7-11.4-16.1-1.8c0,0-5.7,11.1,6.4,12.9s21.5-4.9,21.5-4.9
	S88,207.4,97.3,190L84.7,187z"/>
<path fill="#F8A02A" d="M127.7,181.1c0,0,13.6,4.4,27.1,24c0,0-1.7-14.2,10.2-12.5c0,0,11.8,4,4.4,13.7
	c-7.4,9.8-18.9,11.5-18.9,11.5s-11-19.7-29.8-25.6L127.7,181.1z"/>
<path fill="#F8A02A" d="M175.9,123.2c0,0,7.1,23.6,25.5,8.5c13.2-10.9,8.7-24.1,10.7-30.3c2-6.1,15.7-11.3,21.8-2.2
	c6.1,9.1,1,43.4-32.2,50.6c-33.2,7.2-41.9-5.9-41.9-5.9L175.9,123.2z"/>
<path fill="#F8A02A" d="M68.1,153.5c0,0-21.7-11.7-24,12c-1.7,17.1,10.9,23.2,13.8,28.9c2.9,5.7-3.1,19-13.9,16.9
	c-10.8-2.1-31.4-30-13-58.5c18.4-28.6,33.8-25.5,33.8-25.5L68.1,153.5z"/>
<path fill="#FBB623" d="M69.5,187.6c0,0-54.5-27.1-36.8-93.2C46.6,42.9,96,25.8,158.2,11v15l22.1-4.5V41l15.7,0.5l-13.3,25.9
	c0,0,27.9,96.3-43.7,123C106.9,202.3,82.9,195.3,69.5,187.6z"/>
<g>
	<circle fill="#EAA124" cx="109.8" cy="120.2" r="39.3"/>
	<circle fill="#FFFFFF" cx="111.1" cy="116.3" r="36.8"/>
	<circle fill="#422F17" cx="126.9" cy="111.6" r="17.1"/>
	<circle fill="#FFFFFF" cx="133.7" cy="101.2" r="7.4"/>
</g>
<path fill="#E08827" d="M72.5,80.9c0,0,24-21.5,53.7-11C126.2,69.9,96.3,51.4,72.5,80.9z"/>
<path fill="#F8A02A" d="M220.8,108.7c-2.5,1.1-4.4-1.1-6.5-2.5c-2-1.4-6.8-2.9-8.8-4.2c-4.8-3.2-3.3-7.4-1.1-9.1c2.7-2,9-2,13,3.6
	l3.1,4.4C223.2,104.3,223.1,107.8,220.8,108.7z"/>
<path fill="#F8A02A" d="M222.2,101L222.2,101c-2.8-0.4-3.3-3.9-3.2-5.7l-0.1-7.3c0.3-4.3,3.2-6,6.1-5.6l0,0c2.8,0.4,5.3,2.9,4.2,7.1
	l-2.2,6.9C226.5,99.3,224.2,101.3,222.2,101z"/>
<path fill="#F8A02A" d="M228.5,102.6L228.5,102.6c-2.3-1.7-1.2-5-0.2-6.6l3.3-6.5c2.2-3.7,5.6-3.8,8-2.1l0,0c2.3,1.7,3.3,5,0.5,8.2
	l-5.2,5.2C233.1,103,230.1,103.8,228.5,102.6z"/>
<path fill="#F8A02A" d="M231.2,106.2L231.2,106.2c-0.7-2.2,1.7-3.8,3.1-4.4l5.3-2.6c3.3-1.3,5.5,0.3,6.2,2.6l0,0
	c0.7,2.2-0.3,4.9-3.8,5.6l-5.9,0.8C233.9,108.8,231.6,107.8,231.2,106.2z"/>
<circle fill="#EAA124" cx="172.1" cy="81.5" r="6.3"/>
<circle fill="#EAA124" cx="158.8" cy="66.3" r="4.8"/>
<circle fill="#EAA124" cx="157.1" cy="92.1" r="5.1"/>
<path fill="#EAA124" d="M174.6,105.2c0,5.3,4.3,9.6,9.6,9.6c1.3,0,2.5-0.3,3.7-0.7c0.2-6.3,0-12.4-0.4-17.9c-1-0.4-2.1-0.6-3.2-0.6
	C178.9,95.6,174.6,99.9,174.6,105.2z"/>
<circle fill="#FFFFFF" cx="120.5" cy="119.7" r="3.4"/>
<g>
	<path fill-rule="evenodd" clip-rule="evenodd" fill="#F79F29" d="M109.9,171.1c-17.8,0.6-26,16.5-18.2,12.7
		c8.5-4.1,28-4.9,36.8-1.3C136.5,185.8,127.7,170.5,109.9,171.1z"/>
	<path fill-rule="evenodd" clip-rule="evenodd" fill="#F79F29" d="M109.9,171.9c-15.4,0.5-23.4,13.6-16.7,10.4
		c7.3-3.6,26.4-4.2,34-1.1C134.1,184,125.3,171.4,109.9,171.9z"/>
	<path fill-rule="evenodd" clip-rule="evenodd" fill="#D77427" d="M108.8,173.5c-0.8,0.5-1.3,1.4-1.2,2.3c0.1,1.4,1.3,2.5,2.7,2.5
		c1.4-0.1,2.6-1.3,2.5-2.7c0-1-0.7-1.9-1.5-2.2c-1-0.5-1,0-0.7,0.9c0.2,0.5,0.6,0.9,0.6,1.4c0,0.5-0.4,1-0.9,1c-0.5,0-1-0.4-1-0.9
		c0-0.4,0.4-1,0.5-1.6C109.9,173.2,109.6,173,108.8,173.5z"/>
	<g>
		<path fill-rule="evenodd" clip-rule="evenodd" fill="#FFFFFF" d="M97.6,180.8c-0.1-0.3-0.3-0.7-0.4-1c-0.3-0.5-0.7-0.8-1.3-0.8
			c-1,0.1-2,0.3-3,0.7c-0.5,0.2-0.8,0.7-0.8,1.3c0,0.6,0.1,1.1,0.3,1.6c0.2-0.1,0.5-0.2,0.8-0.3C94.4,181.7,95.9,181.2,97.6,180.8z"
			/>
		<path fill-rule="evenodd" clip-rule="evenodd" fill="#FFFFFF" d="M103.7,179.7c-0.1-0.3-0.2-0.6-0.3-0.9c-0.2-0.5-0.6-0.9-1.1-0.9
			c-1-0.1-2.1,0-3.1,0.3c-0.6,0.1-0.9,0.6-0.9,1.1c0,0.5-0.1,0.9,0,1.4C100,180.3,101.8,179.9,103.7,179.7z"/>
		<path fill-rule="evenodd" clip-rule="evenodd" fill="#FFFFFF" d="M109.8,179.3c0-0.3-0.1-0.6-0.2-0.9c-0.2-0.5-0.5-0.9-1.1-1
			c-1-0.2-2.1-0.1-3.1,0.1c-0.6,0.1-0.9,0.5-1,1.1c-0.1,0.4-0.1,0.8-0.1,1.1C106.1,179.5,107.9,179.3,109.8,179.3z"/>
		<path fill-rule="evenodd" clip-rule="evenodd" fill="#FFFFFF" d="M122.6,180c0.1-0.3,0.2-0.7,0.4-1c0.3-0.5,0.6-0.9,1.2-0.9
			c1,0,2.1,0.2,3,0.5c0.5,0.2,0.8,0.6,0.9,1.2c0,0.6,0,1.1-0.1,1.6c-0.2-0.1-0.5-0.2-0.8-0.3C126,180.7,124.4,180.3,122.6,180z"/>
		<path fill-rule="evenodd" clip-rule="evenodd" fill="#FFFFFF" d="M116.5,179.3c0-0.3,0.1-0.6,0.2-0.9c0.2-0.5,0.5-0.9,1.1-1
			c1-0.2,2.1-0.1,3.1,0.1c0.6,0.1,0.9,0.5,1,1.1c0.1,0.5,0.1,0.9,0.1,1.4C120.3,179.6,118.4,179.4,116.5,179.3z"/>
		<path fill-rule="evenodd" clip-rule="evenodd" fill="#FFFFFF" d="M110.4,179.2c0-0.3,0.1-0.6,0.2-0.9c0.2-0.6,0.4-1,1-1.1
			c1-0.2,2-0.3,3.1-0.1c0.6,0.1,1,0.4,1.1,1c0.1,0.4,0.2,0.8,0.2,1.1C114.1,179.2,112.3,179.2,110.4,179.2z"/>
	</g>
	<g>
		<path fill-rule="evenodd" clip-rule="evenodd" fill="#FFFFFF" d="M98,175.1c0,0.1,0.1,0.3,0.1,0.4c0.1,0.6,0.1,1.1-0.3,1.4
			c-0.8,0.7-1.6,1.3-2.6,1.7c-0.5,0.2-1,0.1-1.4-0.3c-0.1-0.1-0.1-0.1-0.2-0.2C94.8,177.2,96.3,176.1,98,175.1z"/>
		<path fill-rule="evenodd" clip-rule="evenodd" fill="#FFFFFF" d="M103.4,172.9c0.1,0.3,0.1,0.6,0.1,0.9c0,0.6-0.1,1-0.6,1.3
			c-0.9,0.5-1.8,0.9-2.9,1.1c-0.6,0.1-1-0.1-1.3-0.6c-0.2-0.2-0.3-0.5-0.4-0.7C99.8,174.2,101.5,173.5,103.4,172.9z"/>
		<path fill-rule="evenodd" clip-rule="evenodd" fill="#FFFFFF" d="M109.5,172c0,0.3,0,0.5,0,0.8c0,0.6-0.2,1-0.7,1.3
			c-0.9,0.4-1.9,0.7-3,0.8c-0.6,0-1-0.2-1.3-0.7c-0.2-0.4-0.4-0.9-0.5-1.3C105.7,172.3,107.5,172.1,109.5,172z"/>
		<path fill-rule="evenodd" clip-rule="evenodd" fill="#FFFFFF" d="M121.9,174.4c0,0.1-0.1,0.3-0.1,0.4c-0.1,0.6,0,1.1,0.4,1.4
			c0.8,0.7,1.7,1.2,2.7,1.5c0.5,0.2,1,0,1.4-0.4c0.1-0.1,0.1-0.1,0.2-0.2C125.3,176.2,123.8,175.2,121.9,174.4z"/>
		<path fill-rule="evenodd" clip-rule="evenodd" fill="#FFFFFF" d="M116.4,172.5c-0.1,0.3-0.1,0.6-0.1,0.9c0,0.6,0.2,1,0.7,1.3
			c0.9,0.5,1.9,0.8,2.9,0.9c0.6,0.1,1-0.2,1.3-0.7c0.1-0.3,0.3-0.5,0.4-0.8C120.1,173.5,118.3,172.9,116.4,172.5z"/>
		<path fill-rule="evenodd" clip-rule="evenodd" fill="#FFFFFF" d="M110.3,171.9c0,0.3,0,0.5,0,0.8c0.1,0.6,0.3,1,0.8,1.2
			c1,0.4,2,0.6,3,0.6c0.6,0,1-0.3,1.2-0.8c0.2-0.4,0.3-0.9,0.4-1.3C114.1,172.1,112.2,171.9,110.3,171.9z"/>
	</g>
</g>
</svg>
