<?xml version="1.0" encoding="utf-8"?>
<!-- Generator: Adobe Illustrator 16.0.0, SVG Export Plug-In . SVG Version: 6.00 Build 0)  -->
<!DOCTYPE svg PUBLIC "-//W3C//DTD SVG 1.1//EN" "http://www.w3.org/Graphics/SVG/1.1/DTD/svg11.dtd">
<svg version="1.1" id="Layer_1" xmlns="http://www.w3.org/2000/svg" xmlns:xlink="http://www.w3.org/1999/xlink" x="0px" y="0px"
	 width="250px" height="250px" viewBox="0 0 250 250" enable-background="new 0 0 250 250" xml:space="preserve">
<ellipse fill="#E7E7E7" cx="115" cy="240.6" rx="103" ry="7.6"/>
<path fill="#BA2457" d="M172.8,163.8c0,0,37.8,0.5,30.7-41.3c-5-29.2,19.3-25.2,19.3-25.2s25.3,5.3,11.1,43
	c-11.7,30.9-41,35.3-48.6,35.3L172.8,163.8z"/>
<path fill="#28C2E4" d="M101.4,18.6c0,0-21.4-12.5-61.8-10C-0.7,11.2,60.3,41,60.3,41S26.9,32.4,27.2,45s27,17.9,27,17.9
	s-28.6-6.4-26.8,8.3s18.3,13.6,18.3,13.6s-25.1-1.4-20.8,12.4c4.2,13.8,38,20.8,38,20.8L101.4,18.6z"/>
<path fill="#BA2457" d="M70.7,211.3c0,0-27.7,18.5-9.4,24.8s32-17.8,27.8-30.7C84.8,192.6,70.7,211.3,70.7,211.3z"/>
<path fill="#BA2457" d="M107.2,188.1c0,0-13.2,47.8,4.9,50c30.7,3.7,14.2-24.5,10.3-37.4S107.2,188.1,107.2,188.1z"/>
<path fill="#BA2457" d="M149.1,188.1c0,0-9.9,49.7,16.2,48c14.3-0.9,18.2-16.6,3.7-20.3C156.9,212.7,149.1,188.1,149.1,188.1z"/>
<path fill="#EF446F" d="M31.8,208.5C24.4,140.7,30.4,87.2,96.9,2.1c0,0,139.6,22.5,91.5,206.4H31.8z"/>
<path fill="#BA2457" d="M54.7,157.2c0,0-19.8-10.6-39,26.1c-17,32.5,30.7,39.9,32.2,17C50.4,165,66.1,163.5,54.7,157.2z"/>
<g>
	<circle fill="#DE3969" cx="136.7" cy="110.9" r="44.9"/>
	<circle fill="#FFFFFF" cx="135.3" cy="106.3" r="42.1"/>
	<circle fill="#461629" cx="147.2" cy="91.6" r="19.6"/>
	<circle fill="#FFFFFF" cx="146.8" cy="77.5" r="8.5"/>
</g>
<path fill="#680D2D" d="M91.8,195l70.9,0.5c0,0,0.7-32.8-47.2-28C87.4,170.3,91.8,195,91.8,195z"/>
<path fill="#DE3969" d="M88.1,78.6c0,0,16.1-27.7,47.4-26.9C135.5,51.7,101.5,43.4,88.1,78.6z"/>
<path fill="#F2F2F2" d="M112.1,167.9c0,0-6.1,15.5,1.2,16.1c7.3,0.5,10.6-0.1,11.5-3c0.9-2.8-1.9-14-1.9-14S117,166.7,112.1,167.9z"
	/>
<path fill="#F2F2F2" d="M140.7,169c0,0,5.7,14.3-1.7,14.8c-7.3,0.5-10.6-0.1-11.5-3c-0.9-2.8,1.8-13.6,1.8-13.6
	S135.3,167.5,140.7,169z"/>
</svg>
