<svg xmlns="http://www.w3.org/2000/svg" width="80" height="75" viewBox="0 0 80 75"><g fill="#727272"><path d="M40 65.508c-15.469 0-28.008-12.539-28.008-28.008S24.531 9.492 40 9.492 68.008 22.031 68.008 37.5 55.469 65.508 40 65.508zm0-52.969c-13.711 0-24.961 11.25-24.961 24.961S26.289 62.461 40 62.461 64.961 51.211 64.961 37.5 53.711 12.539 40 12.539z"/><path d="M40.586 53.555L24.531 37.5l16.055-16.055 2.109 2.227L28.984 37.5l13.711 13.828-2.109 2.227"/><path d="M26.758 35.859h28.125v3.282H26.758z"/></g></svg>