<svg xmlns="http://www.w3.org/2000/svg" width="80" height="75" viewBox="0 0 80 75"><g fill="#E23A59"><path d="M31.211 26.836h3.516v28.125h-3.516zm7.031 0h3.516v28.125h-3.516zm7.031 0h3.516v28.125h-3.516zM17.148 16.289h45.704v3.516H17.148z"/><path d="M48.672 18.047h-3.281v-3.516a1.85 1.85 0 0 0-1.875-1.875h-7.031a1.85 1.85 0 0 0-1.875 1.875v3.516h-3.281v-3.516c0-2.813 2.344-5.156 5.156-5.156h7.031c2.813 0 5.156 2.344 5.156 5.156v3.516"/><path d="M50.547 65.508H29.453c-2.813 0-5.273-2.344-5.508-5.156l-3.281-42.188 3.516-.234 3.281 42.188c.117 1.055 1.055 1.875 1.992 1.875h21.094c1.055 0 1.992-.938 1.992-1.875L55.82 17.93l3.516.234-3.281 42.188c-.235 2.929-2.696 5.156-5.508 5.156"/></g></svg>